<mxfile host="app.diagrams.net" agent="Mozilla/5.0 (Windows NT 10.0; Win64; x64) AppleWebKit/537.36 (KHTML, like Gecko) Chrome/128.0.0.0 Safari/537.36 Edg/128.0.0.0" version="24.7.12">
  <diagram name="Página-1" id="mEgCssBwgLv3rgp3gzTV">
    <mxGraphModel dx="1025" dy="1642" grid="1" gridSize="10" guides="1" tooltips="1" connect="1" arrows="1" fold="1" page="1" pageScale="1" pageWidth="827" pageHeight="1169" math="0" shadow="0">
      <root>
        <mxCell id="0" />
        <mxCell id="1" parent="0" />
        <mxCell id="QYngExNssMt-g209ozzX-19" value="" style="rounded=0;whiteSpace=wrap;html=1;" vertex="1" parent="1">
          <mxGeometry x="330" y="-40" width="460" height="870" as="geometry" />
        </mxCell>
        <mxCell id="K_c31xT7iejwNr7k08zr-1" value="Reprodutor musical" style="shape=umlActor;verticalLabelPosition=bottom;verticalAlign=top;html=1;outlineConnect=0;" parent="1" vertex="1">
          <mxGeometry x="300" y="60" width="30" height="60" as="geometry" />
        </mxCell>
        <mxCell id="K_c31xT7iejwNr7k08zr-2" value="Aparelho telefônico" style="shape=umlActor;verticalLabelPosition=bottom;verticalAlign=top;html=1;outlineConnect=0;" parent="1" vertex="1">
          <mxGeometry x="300" y="330" width="30" height="60" as="geometry" />
        </mxCell>
        <mxCell id="K_c31xT7iejwNr7k08zr-3" value="Navegar na internet" style="shape=umlActor;verticalLabelPosition=bottom;verticalAlign=top;html=1;outlineConnect=0;" parent="1" vertex="1">
          <mxGeometry x="300" y="600" width="30" height="60" as="geometry" />
        </mxCell>
        <mxCell id="QYngExNssMt-g209ozzX-1" value="ligar" style="ellipse;whiteSpace=wrap;html=1;" vertex="1" parent="1">
          <mxGeometry x="440" y="-20" width="120" height="80" as="geometry" />
        </mxCell>
        <mxCell id="QYngExNssMt-g209ozzX-2" value="selecionarMusica" style="ellipse;whiteSpace=wrap;html=1;" vertex="1" parent="1">
          <mxGeometry x="440" y="180" width="120" height="80" as="geometry" />
        </mxCell>
        <mxCell id="QYngExNssMt-g209ozzX-3" value="ligar&lt;span style=&quot;white-space: pre;&quot;&gt;&#x9;&lt;/span&gt;" style="ellipse;whiteSpace=wrap;html=1;" vertex="1" parent="1">
          <mxGeometry x="440" y="280" width="120" height="80" as="geometry" />
        </mxCell>
        <mxCell id="QYngExNssMt-g209ozzX-4" value="pausar" style="ellipse;whiteSpace=wrap;html=1;" vertex="1" parent="1">
          <mxGeometry x="440" y="80" width="120" height="80" as="geometry" />
        </mxCell>
        <mxCell id="QYngExNssMt-g209ozzX-5" value="" style="endArrow=none;html=1;rounded=0;" edge="1" parent="1" source="K_c31xT7iejwNr7k08zr-1" target="QYngExNssMt-g209ozzX-2">
          <mxGeometry width="50" height="50" relative="1" as="geometry">
            <mxPoint x="364" y="220" as="sourcePoint" />
            <mxPoint x="414" y="170" as="targetPoint" />
          </mxGeometry>
        </mxCell>
        <mxCell id="QYngExNssMt-g209ozzX-6" value="" style="endArrow=none;html=1;rounded=0;" edge="1" parent="1" source="K_c31xT7iejwNr7k08zr-1" target="QYngExNssMt-g209ozzX-4">
          <mxGeometry width="50" height="50" relative="1" as="geometry">
            <mxPoint x="380" y="100" as="sourcePoint" />
            <mxPoint x="430" y="50" as="targetPoint" />
          </mxGeometry>
        </mxCell>
        <mxCell id="QYngExNssMt-g209ozzX-7" value="" style="endArrow=none;html=1;rounded=0;" edge="1" parent="1" source="K_c31xT7iejwNr7k08zr-1" target="QYngExNssMt-g209ozzX-1">
          <mxGeometry width="50" height="50" relative="1" as="geometry">
            <mxPoint x="370" y="80" as="sourcePoint" />
            <mxPoint x="420" y="30" as="targetPoint" />
          </mxGeometry>
        </mxCell>
        <mxCell id="QYngExNssMt-g209ozzX-8" value="atender" style="ellipse;whiteSpace=wrap;html=1;" vertex="1" parent="1">
          <mxGeometry x="440" y="370" width="120" height="80" as="geometry" />
        </mxCell>
        <mxCell id="QYngExNssMt-g209ozzX-9" value="iniciarCorreioVoz" style="ellipse;whiteSpace=wrap;html=1;" vertex="1" parent="1">
          <mxGeometry x="440" y="460" width="120" height="80" as="geometry" />
        </mxCell>
        <mxCell id="QYngExNssMt-g209ozzX-10" value="" style="endArrow=none;html=1;rounded=0;" edge="1" parent="1" source="K_c31xT7iejwNr7k08zr-2" target="QYngExNssMt-g209ozzX-3">
          <mxGeometry width="50" height="50" relative="1" as="geometry">
            <mxPoint x="360" y="390" as="sourcePoint" />
            <mxPoint x="410" y="340" as="targetPoint" />
          </mxGeometry>
        </mxCell>
        <mxCell id="QYngExNssMt-g209ozzX-11" value="" style="endArrow=none;html=1;rounded=0;" edge="1" parent="1" source="K_c31xT7iejwNr7k08zr-2" target="QYngExNssMt-g209ozzX-8">
          <mxGeometry width="50" height="50" relative="1" as="geometry">
            <mxPoint x="370" y="440" as="sourcePoint" />
            <mxPoint x="420" y="390" as="targetPoint" />
          </mxGeometry>
        </mxCell>
        <mxCell id="QYngExNssMt-g209ozzX-12" value="" style="endArrow=none;html=1;rounded=0;" edge="1" parent="1" source="K_c31xT7iejwNr7k08zr-2" target="QYngExNssMt-g209ozzX-9">
          <mxGeometry width="50" height="50" relative="1" as="geometry">
            <mxPoint x="360" y="490" as="sourcePoint" />
            <mxPoint x="410" y="440" as="targetPoint" />
          </mxGeometry>
        </mxCell>
        <mxCell id="QYngExNssMt-g209ozzX-13" value="exibirPagina" style="ellipse;whiteSpace=wrap;html=1;" vertex="1" parent="1">
          <mxGeometry x="440" y="550" width="120" height="80" as="geometry" />
        </mxCell>
        <mxCell id="QYngExNssMt-g209ozzX-14" value="adicionarNovaAba" style="ellipse;whiteSpace=wrap;html=1;" vertex="1" parent="1">
          <mxGeometry x="440" y="640" width="120" height="80" as="geometry" />
        </mxCell>
        <mxCell id="QYngExNssMt-g209ozzX-15" value="atualizarPagina" style="ellipse;whiteSpace=wrap;html=1;" vertex="1" parent="1">
          <mxGeometry x="440" y="730" width="120" height="80" as="geometry" />
        </mxCell>
        <mxCell id="QYngExNssMt-g209ozzX-16" value="" style="endArrow=none;html=1;rounded=0;" edge="1" parent="1" source="K_c31xT7iejwNr7k08zr-3" target="QYngExNssMt-g209ozzX-13">
          <mxGeometry width="50" height="50" relative="1" as="geometry">
            <mxPoint x="360" y="590" as="sourcePoint" />
            <mxPoint x="410" y="540" as="targetPoint" />
          </mxGeometry>
        </mxCell>
        <mxCell id="QYngExNssMt-g209ozzX-17" value="" style="endArrow=none;html=1;rounded=0;" edge="1" parent="1" source="K_c31xT7iejwNr7k08zr-3" target="QYngExNssMt-g209ozzX-14">
          <mxGeometry width="50" height="50" relative="1" as="geometry">
            <mxPoint x="360" y="590" as="sourcePoint" />
            <mxPoint x="410" y="540" as="targetPoint" />
          </mxGeometry>
        </mxCell>
        <mxCell id="QYngExNssMt-g209ozzX-18" value="" style="endArrow=none;html=1;rounded=0;" edge="1" parent="1" source="K_c31xT7iejwNr7k08zr-3" target="QYngExNssMt-g209ozzX-15">
          <mxGeometry width="50" height="50" relative="1" as="geometry">
            <mxPoint x="350" y="760" as="sourcePoint" />
            <mxPoint x="400" y="710" as="targetPoint" />
          </mxGeometry>
        </mxCell>
      </root>
    </mxGraphModel>
  </diagram>
</mxfile>
